<svg id="Layer_1" data-name="Layer 1" xmlns="http://www.w3.org/2000/svg" viewBox="0 0 735.91 184.45">
    <defs>
        <style>.cls-1{fill:#bc2331;}.cls-2{fill:#111;}</style>
    </defs>
    <path class="cls-1"
          d="M36.46,118.3q12.69,6.26,25.38,12.56l18.14,9a11.75,11.75,0,0,0,1.72.65l.77.26.29.11.3-.1c.28-.1.55-.18.82-.26a11.22,11.22,0,0,0,1.86-.67L105.6,130q11.9-5.91,23.82-11.81a5.35,5.35,0,0,0,3.38-4.79c0-2.21-1.08-3.91-3.36-5L117,102.17c-10.3-5.11-21-10.4-31.46-15.5a6.86,6.86,0,0,0-5.37,0c-10.35,5-20.82,10.23-30.95,15.26l-12.8,6.35c-1.5.74-3.5,2.06-3.5,4.92C32.89,115.44,34.06,117.11,36.46,118.3Zm78-4.3c-2.06,1-4.09,2.07-6.14,3.09L105,118.72c-7,3.5-14.09,7-21.18,10.4a2.82,2.82,0,0,1-2,0q-13.23-6.47-26.4-13l-5.66-2.81,22.2-11c3.38-1.68,6.76-3.36,10.17-5a1.9,1.9,0,0,1,1.14-.16q15.73,7.74,31.43,15.58l1.19.61Z"
          transform="translate(-32.84 -7.78)"/>
    <path class="cls-1"
          d="M36.23,135.27Q58,146.07,79.74,156.85a13.55,13.55,0,0,0,2,.74l.88.28.31.11.3-.11.93-.33a16.46,16.46,0,0,0,2.07-.8q11.3-5.58,22.55-11.19l14.32-7.1c2.29-1.12,4.57-2.24,6.82-3.4a5.17,5.17,0,0,0-3.11-9.75,10.34,10.34,0,0,0-2.63,1l-4.79,2.37Q101.94,137.33,84.53,146a3.14,3.14,0,0,1-3.3,0Q61.07,135.93,40.83,126c-3-1.51-6-.7-7.37,2a5,5,0,0,0-.37,3.92A6,6,0,0,0,36.23,135.27Z"
          transform="translate(-32.84 -7.78)"/>
    <path class="cls-1"
          d="M124.91,158.62Q104.44,168.73,84,178.9a2.09,2.09,0,0,1-2.23,0q-20.52-10.25-41.11-20.35a6.27,6.27,0,0,0-3.23-.66A4.93,4.93,0,0,0,33,162.18a5.16,5.16,0,0,0,3.1,5.63Q58,178.7,79.93,189.56a11.46,11.46,0,0,0,1.85.67l.83.25.29.1.29-.1c.27-.1.54-.18.8-.26a10.21,10.21,0,0,0,1.71-.63q21.94-10.84,43.87-21.75a6.55,6.55,0,0,0,2.11-1.64,5.18,5.18,0,0,0-.05-6.51C130,157.74,127.51,157.33,124.91,158.62Z"
          transform="translate(-32.84 -7.78)"/>
    <path class="cls-1"
          d="M36.41,151.69l14.12,7Q65.25,166,79.94,173.28a6.48,6.48,0,0,0,2.92.74,6.4,6.4,0,0,0,2.87-.73c2.31-1.17,4.63-2.32,7-3.47l9.95-4.93q13.4-6.64,26.79-13.26a5.31,5.31,0,0,0,3.36-4.79v0a5,5,0,0,0-2.25-4.44,5.93,5.93,0,0,0-5.82,0q-20.29,10-40.56,20.15a2.48,2.48,0,0,1-2.6,0q-16.72-8.37-33.5-16.65L41,142.38c-3.16-1.56-6.12-.81-7.54,1.93a4.86,4.86,0,0,0-.38,3.84A6.21,6.21,0,0,0,36.41,151.69Z"
          transform="translate(-32.84 -7.78)"/>
    <path class="cls-2"
          d="M185.08,190.57V86.71h45.2c19.5,0,31.74,10,31.74,25.91a22.91,22.91,0,0,1-19.51,22.53v.58C256.62,136.81,267,147.1,267,160.84c0,18.29-13.74,29.73-35.91,29.73Zm21.73-60.67h15.62c11.59,0,18.21-5.11,18.21-13.9,0-8.34-5.83-13.09-16-13.09H206.81Zm18.72,44.48c12.52,0,19.29-5.33,19.29-15.26,0-9.72-7-14.9-19.8-14.9H206.81v30.16Z"
          transform="translate(-32.84 -7.78)"/>
    <path class="cls-2"
          d="M278.3,168.4c0-14,10.79-22.17,30-23.32l19.43-1.15v-5.11c0-7.2-5-11.37-12.95-11.37S302,131.34,301,137H281.75c.79-15,13.53-25.26,34-25.26,19.8,0,32.68,10.22,32.68,25.76v53H328.1v-11.8h-.43c-4.32,8.2-13.89,13-23.53,13C289.45,191.79,278.3,182.29,278.3,168.4Zm49.44-6.12v-5.61l-16.26,1c-7.85.57-12.31,4.1-12.31,9.57,0,5.76,4.75,9.36,11.88,9.36C320.19,176.61,327.74,170.63,327.74,162.28Z"
          transform="translate(-32.84 -7.78)"/>
    <path class="cls-2"
          d="M396.64,111.76c19.79,0,32,10.15,32.46,25.26H409.74c-.65-6.26-5.33-10.51-13.1-10.51-7.27,0-12.09,3.31-12.09,8.42,0,4,2.87,6.63,10.65,8.28L408.37,146c16.12,3.38,22.74,9.71,22.74,21,0,15.19-13.89,25.19-33.75,25.19-21.31,0-33.61-9.93-35-25.11h20.51c1.3,6.76,6.12,10.36,14.47,10.36,7.91,0,12.81-3.24,12.81-8.28,0-4.1-2.66-6.4-10.22-8.13l-13.17-2.73c-14.9-3.17-22.46-10.66-22.46-22.24C364.32,121.4,377,111.76,396.64,111.76Z"
          transform="translate(-32.84 -7.78)"/>
    <path class="cls-2"
          d="M515.55,167c-2.3,15.12-16.12,25.26-35.19,25.26-23.75,0-38-15.18-38-39.87s14.4-40.59,37.22-40.59c22.45,0,36.63,15.18,36.63,38.65v6.4H463v1.3c0,11,7,18.57,17.71,18.57,7.7,0,13.6-3.82,15.54-9.72Zm-52.32-23H496c-.44-9.86-6.84-16.63-16.2-16.63C470.57,127.3,464,134.29,463.23,143.93Z"
          transform="translate(-32.84 -7.78)"/>
    <path class="cls-2" d="M531.18,86.71h21V190.57h-21Z" transform="translate(-32.84 -7.78)"/>
    <path class="cls-2"
          d="M569.92,92.18A10.94,10.94,0,1,1,580.86,103,10.81,10.81,0,0,1,569.92,92.18Zm.5,21.23h21v77.16h-21Z"
          transform="translate(-32.84 -7.78)"/>
    <path class="cls-2"
          d="M609.09,113.41h20.3v13.75h.43c4.1-9.57,12.23-15.19,24.11-15.19,17.13,0,26.77,10.8,26.77,28.87v49.73h-21V145.23c0-10.08-4.75-15.84-14.18-15.84s-15.4,6.91-15.4,16.92v44.26h-21Z"
          transform="translate(-32.84 -7.78)"/>
    <path class="cls-2"
          d="M768.09,167c-2.3,15.12-16.12,25.26-35.19,25.26-23.75,0-38-15.18-38-39.87s14.39-40.59,37.21-40.59c22.45,0,36.63,15.18,36.63,38.65v6.4H715.55v1.3c0,11,7,18.57,17.71,18.57,7.7,0,13.6-3.82,15.54-9.72Zm-52.32-23h32.75c-.44-9.86-6.84-16.63-16.2-16.63S716.49,134.29,715.77,143.93Z"
          transform="translate(-32.84 -7.78)"/>
    <path class="cls-2"
          d="M248.41,22.28A18.45,18.45,0,0,0,230,40.72a18.39,18.39,0,0,0,18.44,18.44,17.75,17.75,0,0,0,11.11-3.73l1.28-1-5.61-5.61-1,.66a9.9,9.9,0,0,1-5.81,1.73A10,10,0,0,1,241,48.14a10.24,10.24,0,0,1-2.66-4.3h28.51V40.72a17.69,17.69,0,0,0-5.41-13A17.75,17.75,0,0,0,248.41,22.28ZM239,35.91a10.89,10.89,0,0,1,2-2.63,10.59,10.59,0,0,1,16.81,2.63Z"
          transform="translate(-32.84 -7.78)"/>
    <polygon class="cls-2"
             points="250.3 38.58 241.41 14.51 232.95 14.51 246.59 51.39 254.01 51.39 267.65 14.51 259.19 14.51 250.3 38.58"/>
    <rect class="cls-2" x="271.47" y="14.51" width="7.93" height="36.88"/>
    <path class="cls-2" d="M304.31,18.3h0a7.93,7.93,0,0,0,7.93-7.93h-7.93Z" transform="translate(-32.84 -7.78)"/>
    <polygon class="cls-2"
             points="318.39 14.51 306.17 14.51 293.79 24.83 293.79 0 285.86 2.64 285.86 51.39 293.79 51.39 293.79 35.14 294.68 34.39 308.88 51.39 319.24 51.39 300.73 29.31 318.39 14.51"/>
    <path class="cls-2"
          d="M378.92,22.28v3.27A18.45,18.45,0,0,0,350,40.72a18.37,18.37,0,0,0,18.44,18.44,17.8,17.8,0,0,0,10.51-3.26v1.51L386.85,60V22.28Zm0,18.44a10.51,10.51,0,1,1-18-7.41h0a10.53,10.53,0,0,1,18,7.41Z"
          transform="translate(-32.84 -7.78)"/>
    <path class="cls-2"
          d="M203.49,22.28A18.44,18.44,0,1,0,218,52.13V29.32A18.4,18.4,0,0,0,203.49,22.28Zm1.07,28.9a10.51,10.51,0,1,1,9.38-9.38A10.53,10.53,0,0,1,204.56,51.18Z"
          transform="translate(-32.84 -7.78)"/>
    <path class="cls-2" d="M218,10.42v18.9a18.37,18.37,0,0,1,0,22.81v5.23L225.89,60V7.78Z"
          transform="translate(-32.84 -7.78)"/>
</svg>
