<?xml version="1.0" encoding="utf-8"?>
<!-- Generator: Adobe Illustrator 26.2.1, SVG Export Plug-In . SVG Version: 6.00 Build 0)  -->
<svg version="1.1" id="Layer_1" xmlns="http://www.w3.org/2000/svg" xmlns:xlink="http://www.w3.org/1999/xlink" x="0px" y="0px"
	 viewBox="0 0 735.9 184.4" style="enable-background:new 0 0 735.9 184.4;" xml:space="preserve">
<style type="text/css">
	.st0{fill:#FFD600;}
	.st1{fill:#F5931E;}
	.st2{fill:#FFFFFF;}
</style>
<g>
	<g>
		<g>
			<path class="st0" d="M4.2,73.4c8.5,4.2,16.9,8.4,25.3,12.6l18.1,9c0.5,0.3,1.1,0.5,1.7,0.6c0.3,0.1,0.5,0.2,0.8,0.3l0.3,0.1
				l0.3-0.1c0.3-0.1,0.5-0.2,0.8-0.3c0.6-0.2,1.3-0.4,1.9-0.7c6.6-3.3,13.2-6.6,19.8-9.8c7.9-3.9,15.9-7.9,23.8-11.8
				c2.2-1.1,3.3-2.7,3.4-4.8c0.1-2.2-1.1-3.9-3.4-5l-12.4-6.2C74.4,52.2,63.7,47,53.2,41.9c-1.5-0.7-3.9-0.7-5.4,0
				c-10.3,5-20.8,10.2-30.9,15.2L4.2,63.4c-1.5,0.7-3.5,2.1-3.5,4.9C0.7,70.6,1.8,72.3,4.2,73.4z M82.1,69.2c-2.1,1-4.1,2.1-6.1,3.1
				l-3.3,1.6c-7,3.5-14.1,7-21.2,10.4c-0.5,0.3-1.5,0.2-2,0c-8.8-4.3-17.6-8.7-26.4-13l-5.6-2.8l22.2-11c3.4-1.7,6.8-3.4,10.2-5
				c0.4-0.2,1-0.2,1.1-0.2c10.5,5.2,20.9,10.4,31.4,15.6l1.2,0.6L82.1,69.2z"/>
		</g>
		<g>
			<path class="st0" d="M4,90.4c14.5,7.2,29,14.4,43.4,21.5c0.6,0.3,1.3,0.5,2,0.7c0.3,0.1,0.6,0.2,0.9,0.3l0.3,0.1l0.3-0.1
				c0.3-0.1,0.6-0.2,0.9-0.3c0.7-0.2,1.4-0.5,2.1-0.8c7.5-3.7,15-7.4,22.5-11.2l14.3-7.1c2.3-1.1,4.6-2.2,6.8-3.4
				c2.4-1.2,3.4-3.8,2.6-6.3c-0.7-2.4-3.3-3.9-5.8-3.4c-1,0.2-1.8,0.6-2.6,1L87,83.8c-11.6,5.7-23.2,11.5-34.8,17.3
				c-1.3,0.6-2.1,0.6-3.3,0c-13.4-6.7-26.9-13.4-40.3-20c-3-1.5-6-0.7-7.4,2c-0.7,1.3-0.8,2.6-0.4,3.9C1.3,88.4,2.5,89.6,4,90.4z"/>
		</g>
		<g>
			<path class="st1" d="M92.6,113.7c-13.6,6.7-27.3,13.5-40.9,20.3c-0.9,0.4-1.4,0.4-2.2,0c-13.7-6.8-27.4-13.6-41.1-20.3
				c-1-0.5-2.1-0.8-3.2-0.7c-2.2,0.2-4.1,1.9-4.4,4.3c-0.4,2.4,0.7,4.5,3.1,5.6c14.6,7.3,29.2,14.5,43.8,21.7
				c0.6,0.3,1.2,0.5,1.8,0.7c0.3,0.1,0.5,0.2,0.8,0.3l0.3,0.1l0.3-0.1c0.3-0.1,0.5-0.2,0.8-0.3c0.6-0.2,1.2-0.4,1.7-0.6
				c14.6-7.2,29.2-14.5,43.8-21.7c0.8-0.4,1.6-1,2.1-1.6c1.5-1.9,1.5-4.6,0-6.5C97.7,112.8,95.2,112.4,92.6,113.7z"/>
		</g>
		<g>
			<path class="st1" d="M4.2,106.8l14.1,7c9.8,4.8,19.6,9.7,29.4,14.6c1,0.5,2,0.7,2.9,0.7c1,0,1.9-0.2,2.9-0.7
				c2.3-1.2,4.6-2.3,6.9-3.5l9.9-4.9c8.9-4.4,17.8-8.8,26.7-13.2c2.2-1.1,3.3-2.6,3.4-4.8v0c0-1.9-0.8-3.5-2.2-4.4
				c-1.6-1-3.8-1-5.8,0c-13.5,6.7-27,13.4-40.5,20.1c-1,0.5-1.6,0.5-2.6,0C38.1,112,27,106.5,15.8,101l-7-3.5
				c-3.2-1.6-6.1-0.8-7.5,1.9c-0.7,1.3-0.8,2.6-0.4,3.8C1.3,104.7,2.5,105.9,4.2,106.8z"/>
		</g>
	</g>
	<g>
		<path class="st2" d="M152.7,41.9h45.1c19.5,0,31.8,10.1,31.8,26v0.1c0,11.4-8.6,21.1-20.1,22.6v0.4c14.4,1.1,24.9,11.3,24.9,24.9
			v0.1c0,18.2-13.7,29.5-35.9,29.5h-45.9V41.9z M174.4,58v27.2h15.2c12.2,0,18.8-5.1,18.8-14.1V71c0-8.3-6-13-16.1-13H174.4z
			 M174.4,100v29.5H193c12.4,0,19.3-5.1,19.3-14.7v-0.1c0-9.5-6.9-14.6-20.2-14.6H174.4z"/>
		<path class="st2" d="M245.7,123.6v-0.1c0-14,10.9-22.2,30-23.4l19-1.1v-4.7c0-6.8-4.5-11.1-12.6-11.1c-7.8,0-12.6,3.7-13.6,8.6
			l-0.1,0.6h-19.2l0.1-0.9C250.4,77.2,262.6,67,283,67c19.9,0,32.8,10.3,32.8,25.8v52.8h-21v-11.5h-0.4
			c-4.4,7.9-12.6,12.7-22.7,12.7C256.2,146.8,245.7,137.1,245.7,123.6z M278.4,131.5c9.4,0,16.3-6,16.3-14.1v-5.5l-15.9,1
			c-8.1,0.5-12.4,4-12.4,9.4v0.1C266.5,128.2,271.2,131.5,278.4,131.5z"/>
		<path class="st2" d="M329.8,122.8l-0.1-0.6h20.5l0.1,0.6c1.4,6,5.9,9.6,14.3,9.6c7.9,0,12.7-3.1,12.7-8v-0.1
			c0-4.1-2.6-6.5-10.1-8.1l-13.1-2.7c-14.9-3.2-22.5-10.6-22.5-22.1v-0.1c0-14.7,12.6-24.1,32.3-24.1c20.5,0,31.9,10.9,32.4,24.4
			v0.7H377l-0.1-0.6c-0.7-5.5-5.2-9.7-13-9.7c-7.3,0-11.8,3.2-11.8,8.2v0.1c0,4,2.7,6.5,10.4,8.2l13.1,2.8
			c16.1,3.4,22.7,9.7,22.7,21.1v0.1c0,15.1-13.9,25-33.7,25C343.3,147.2,331.4,137.4,329.8,122.8z"/>
		<path class="st2" d="M409.6,107.2L409.6,107.2c0-24.6,14.4-40.2,37-40.2c22.6,0,36.7,15.3,36.7,38.6v6.5h-53
			c0.2,12.3,6.9,19.5,17.6,19.5c8.6,0,13.9-4.7,15.4-9.1l0.1-0.4h19.3l-0.2,0.8c-2.4,11.4-13,24.4-35,24.4
			C423.9,147.2,409.6,131.9,409.6,107.2z M430.5,98.8h32.7c-1.3-10.6-7.5-16.2-16.2-16.2C438.3,82.7,431.8,88.4,430.5,98.8z"/>
		<path class="st2" d="M498.3,41.9h21v103.7h-21V41.9z"/>
		<path class="st2" d="M536.8,47.7c0-6,4.9-10.9,11.2-10.9s11.2,5,11.2,10.9s-4.9,10.9-11.2,10.9S536.8,53.7,536.8,47.7z
			 M537.5,68.6h21v77h-21V68.6z"/>
		<path class="st2" d="M576.2,68.6h21v12.6h0.4c4-8.8,11.9-14.2,23.5-14.2c17,0,26.6,10.9,26.6,28.9v49.7h-21v-45.4
			c0-10.1-4.7-15.8-14.2-15.8c-9.4,0-15.4,6.9-15.4,17v44.3h-21V68.6z"/>
		<path class="st2" d="M661.9,107.2L661.9,107.2c0-24.6,14.4-40.2,37-40.2s36.7,15.3,36.7,38.6v6.5h-53c0.2,12.3,6.9,19.5,17.6,19.5
			c8.6,0,13.9-4.7,15.4-9.1l0.1-0.4H735l-0.2,0.8c-2.4,11.4-13,24.4-35,24.4C676.2,147.2,661.9,131.9,661.9,107.2z M682.8,98.8h32.7
			c-1.3-10.6-7.5-16.2-16.2-16.2C690.6,82.7,684.2,88.4,682.8,98.8z"/>
	</g>
</g>
</svg>
